Coordinates
version=1
nRows=16
nColumns=28
inDegrees=yes

Units are S.I. units (second, meters, Newtons, ...)
Angles are in degrees.

endheader
time	pelvis_tilt	pelvis_list	pelvis_rotation	pelvis_tx	pelvis_ty	pelvis_tz	hip_flexion_r	hip_adduction_r	hip_rotation_r	knee_angle_r	ankle_angle_r	subtalar_angle_r	mtp_angle_r	hip_flexion_l	hip_adduction_l	hip_rotation_l	knee_angle_l	socket_flexion	socket_adduction	socket_rotation	socket_tx	socket_ty	socket_tz	foot_flex	lumbar_extension	lumbar_bending	lumbar_rotation
      0.31666667	     -0.91186599	      0.95027291	     -0.53364122	     -0.42946682	      1.02877096	      0.25910217	     19.23156842	     -2.93233304	     -6.89063933	    -62.69826650	      6.16129099	    -17.60727817	     -3.05545074	      4.16880663	      2.79754404	      9.87069416	     -6.62516900	      0.00000000	      0.00000000	      0.00000000	      0.00000000	      0.00000000	      0.00000000	     -0.35303950	     -9.42993169	     -3.80700369	     -1.70858762
      0.32083333	     -0.88809338	      0.94998318	     -0.46096768	     -0.42464727	      1.02911513	      0.25896626	     19.76173667	     -2.96864583	     -6.92646209	    -62.25733464	      6.24814566	    -17.61552928	     -3.05857984	      3.84287101	      2.81128783	      9.87181628	     -6.60771174	      0.00000000	      0.00000000	      0.00000000	      0.00000000	      0.00000000	      0.00000000	     -0.29968758	     -9.55203844	     -3.79455552	     -1.72240817
      0.32500000	     -0.83761635	      0.62125361	     -0.20921795	     -0.41913929	      1.02979532	      0.25864436	     19.98599734	     -2.64429142	     -7.18276123	    -61.43509323	      6.90072069	    -17.49930445	     -3.17837929	      3.37646205	      2.45882822	     10.13247306	     -6.44030475	      0.00000000	      0.00000000	      0.00000000	      0.00000000	      0.00000000	      0.00000000	     -0.17384415	     -9.59427194	     -3.36417926	     -1.96387982
      0.32916667	     -0.81640568	      0.60191740	     -0.11091556	     -0.41395663	      1.03015117	      0.25856988	     20.40251010	     -2.65788182	     -7.26140984	    -60.79946858	      7.05159386	    -17.48245026	     -3.22249377	      2.98882900	      2.43564300	     10.18915616	     -6.34691530	      0.00000000	      0.00000000	      0.00000000	      0.00000000	      0.00000000	      0.00000000	     -0.04755261	     -9.63159423	     -3.33974671	     -2.03089327
      0.33333333	     -0.44305293	      0.28321971	      0.31955675	     -0.40880160	      1.03117740	      0.25786134	     20.26501186	     -2.48641501	     -7.79943746	    -59.95001566	      7.67051659	    -17.14066481	     -4.15562667	      2.24262015	      2.10859048	     10.64725261	     -6.23900832	      0.00000000	      0.00000000	      0.00000000	      0.00000000	      0.00000000	      0.00000000	      0.04524307	    -10.13883545	     -2.83118677	     -2.71684501
      0.33750000	     -0.45764173	      0.26379860	      0.39161718	     -0.40366046	      1.03144082	      0.25783471	     20.69898107	     -2.47967172	     -7.84078074	    -59.25591820	      7.84430806	    -17.15385547	     -4.19008640	      1.90520057	      2.08047698	     10.66502796	     -6.16154617	      0.00000000	      0.00000000	      0.00000000	      0.00000000	      0.00000000	      0.00000000	      0.15822170	    -10.15349150	     -2.81880723	     -2.71560686
      0.34166667	     -0.47129526	      0.18934718	      0.49171890	     -0.39844630	      1.03171738	      0.25780655	     21.08114399	     -2.41092221	     -7.92524187	    -58.47606195	      8.08457838	    -17.17499959	     -4.23161881	      1.55319551	      1.98693656	     10.72561519	     -6.05625370	      0.00000000	      0.00000000	      0.00000000	      0.00000000	      0.00000000	      0.00000000	      0.27244305	    -10.14634389	     -2.73052342	     -2.73210250
      0.34583333	     -0.39599269	     -0.17188093	      0.73833747	     -0.39327597	      1.03225181	      0.25743776	     21.26545773	     -2.08428859	     -8.23560270	    -57.52040675	      8.45242023	    -17.16247541	     -4.52393324	      1.12350599	      1.58538840	     10.99042527	     -5.95257564	      0.00000000	      0.00000000	      0.00000000	      0.00000000	      0.00000000	      0.00000000	      0.38191258	    -10.27448932	     -2.23302594	     -2.89269135
      0.35000000	     -0.04707117	     -0.31940364	      0.99532873	     -0.38823490	      1.03304204	      0.25712571	     21.17549998	     -2.01674941	     -8.55639688	    -56.61126849	      8.89387114	    -17.12760873	     -5.78299963	      0.39529458	      1.40466979	     11.22762577	     -5.83065034	      0.00000000	      0.00000000	      0.00000000	      0.00000000	      0.00000000	      0.00000000	      0.47751516	    -10.74168581	     -1.98581306	     -3.30504098
      0.35416667	     -0.09086969	     -0.39652057	      1.09272033	     -0.38303014	      1.03318089	      0.25705077	     21.55534162	     -1.96225814	     -8.66924987	    -55.74814567	      9.10670571	    -17.13513444	     -5.90062456	      0.06986734	      1.30633839	     11.27274396	     -5.70756127	      0.00000000	      0.00000000	      0.00000000	      0.00000000	      0.00000000	      0.00000000	      0.58865110	    -10.71668382	     -1.88943701	     -3.27949189
      0.35833333	     -0.10867291	     -0.36363909	      1.13952840	     -0.37803521	      1.03325961	      0.25709608	     21.94015467	     -2.02187974	     -8.72562103	    -54.91016905	      9.22861227	    -17.16093066	     -5.94074095	     -0.24346445	      1.32666559	     11.29618035	     -5.66402597	      0.00000000	      0.00000000	      0.00000000	      0.00000000	      0.00000000	      0.00000000	      0.70115438	    -10.73406194	     -1.93767270	     -3.29558219
      0.36250000	     -0.04343489	     -0.66978816	      1.38027857	     -0.37279223	      1.03365855	      0.25681414	     22.05506118	     -1.75897964	     -9.06250961	    -53.78272136	      9.46742622	    -17.28595744	     -6.31727158	     -0.68024569	      0.96059894	     11.55834204	     -5.52415502	      0.00000000	      0.00000000	      0.00000000	      0.00000000	      0.00000000	      0.00000000	      0.83725542	    -10.81185448	     -1.51894593	     -3.43982031
      0.36666667	     -0.06295214	     -0.60773970	      1.43485830	     -0.36784100	      1.03367550	      0.25687084	     22.41742681	     -1.85010915	     -9.12819080	    -52.89617588	      9.58685849	    -17.32924788	     -6.37334145	     -0.99755457	      1.00955800	     11.55707060	     -5.46101963	      0.00000000	      0.00000000	      0.00000000	      0.00000000	      0.00000000	      0.00000000	      0.93270193	    -10.84777890	     -1.59271094	     -3.47077920
      0.37083333	      0.06974195	     -0.86936328	      1.68935377	     -0.36265759	      1.03411729	      0.25658480	     22.42519052	     -1.63725669	     -9.47764269	    -51.69250787	      9.75287534	    -17.53874079	     -6.93430020	     -1.49846977	      0.68582612	     11.81590088	     -5.33180108	      0.00000000	      0.00000000	      0.00000000	      0.00000000	      0.00000000	      0.00000000	      1.06547264	    -11.01968527	     -1.22442749	     -3.69403678
      0.37500000	      0.04079622	     -0.79731930	      1.73755046	     -0.35772818	      1.03404195	      0.25664216	     22.76596096	     -1.73590960	     -9.54204964	    -50.74408941	      9.90027672	    -17.58851422	     -6.99937018	     -1.81302500	      0.74365232	     11.81284170	     -5.24890048	      0.00000000	      0.00000000	      0.00000000	      0.00000000	      0.00000000	      0.00000000	      1.15439880	    -11.03950055	     -1.31057168	     -3.71444446
      0.37916667	      0.00706461	     -0.73856342	      1.78667470	     -0.35271219	      1.03395861	      0.25674927	     23.07469983	     -1.81394243	     -9.62503986	    -49.73014974	     10.04788758	    -17.63958650	     -7.05600808	     -2.12456058	      0.77903243	     11.82754126	     -5.17544212	      0.00000000	      0.00000000	      0.00000000	      0.00000000	      0.00000000	      0.00000000	      1.26280315	    -11.02611573	     -1.38166706	     -3.72880419
